<svg version="1.1" xmlns="http://www.w3.org/2000/svg" xmlns:xlink="http://www.w3.org/1999/xlink" width="428.58984375" height="360"><defs/><g><text fill="#eeeeee" stroke="none" font-family="Arial" font-size="24px" font-style="normal" font-weight="normal" text-decoration="none" x="0" y="0">UNREGISTERED</text><text fill="#eeeeee" stroke="none" font-family="Arial" font-size="24px" font-style="normal" font-weight="normal" text-decoration="none" x="0" y="30">UNREGISTERED</text><text fill="#eeeeee" stroke="none" font-family="Arial" font-size="24px" font-style="normal" font-weight="normal" text-decoration="none" x="0" y="60">UNREGISTERED</text><text fill="#eeeeee" stroke="none" font-family="Arial" font-size="24px" font-style="normal" font-weight="normal" text-decoration="none" x="0" y="90">UNREGISTERED</text><text fill="#eeeeee" stroke="none" font-family="Arial" font-size="24px" font-style="normal" font-weight="normal" text-decoration="none" x="0" y="120">UNREGISTERED</text><text fill="#eeeeee" stroke="none" font-family="Arial" font-size="24px" font-style="normal" font-weight="normal" text-decoration="none" x="0" y="150">UNREGISTERED</text><text fill="#eeeeee" stroke="none" font-family="Arial" font-size="24px" font-style="normal" font-weight="normal" text-decoration="none" x="0" y="180">UNREGISTERED</text><text fill="#eeeeee" stroke="none" font-family="Arial" font-size="24px" font-style="normal" font-weight="normal" text-decoration="none" x="0" y="210">UNREGISTERED</text><text fill="#eeeeee" stroke="none" font-family="Arial" font-size="24px" font-style="normal" font-weight="normal" text-decoration="none" x="0" y="240">UNREGISTERED</text><text fill="#eeeeee" stroke="none" font-family="Arial" font-size="24px" font-style="normal" font-weight="normal" text-decoration="none" x="0" y="270">UNREGISTERED</text><text fill="#eeeeee" stroke="none" font-family="Arial" font-size="24px" font-style="normal" font-weight="normal" text-decoration="none" x="0" y="300">UNREGISTERED</text><text fill="#eeeeee" stroke="none" font-family="Arial" font-size="24px" font-style="normal" font-weight="normal" text-decoration="none" x="0" y="330">UNREGISTERED</text><text fill="#eeeeee" stroke="none" font-family="Arial" font-size="24px" font-style="normal" font-weight="normal" text-decoration="none" x="200" y="0">UNREGISTERED</text><text fill="#eeeeee" stroke="none" font-family="Arial" font-size="24px" font-style="normal" font-weight="normal" text-decoration="none" x="200" y="30">UNREGISTERED</text><text fill="#eeeeee" stroke="none" font-family="Arial" font-size="24px" font-style="normal" font-weight="normal" text-decoration="none" x="200" y="60">UNREGISTERED</text><text fill="#eeeeee" stroke="none" font-family="Arial" font-size="24px" font-style="normal" font-weight="normal" text-decoration="none" x="200" y="90">UNREGISTERED</text><text fill="#eeeeee" stroke="none" font-family="Arial" font-size="24px" font-style="normal" font-weight="normal" text-decoration="none" x="200" y="120">UNREGISTERED</text><text fill="#eeeeee" stroke="none" font-family="Arial" font-size="24px" font-style="normal" font-weight="normal" text-decoration="none" x="200" y="150">UNREGISTERED</text><text fill="#eeeeee" stroke="none" font-family="Arial" font-size="24px" font-style="normal" font-weight="normal" text-decoration="none" x="200" y="180">UNREGISTERED</text><text fill="#eeeeee" stroke="none" font-family="Arial" font-size="24px" font-style="normal" font-weight="normal" text-decoration="none" x="200" y="210">UNREGISTERED</text><text fill="#eeeeee" stroke="none" font-family="Arial" font-size="24px" font-style="normal" font-weight="normal" text-decoration="none" x="200" y="240">UNREGISTERED</text><text fill="#eeeeee" stroke="none" font-family="Arial" font-size="24px" font-style="normal" font-weight="normal" text-decoration="none" x="200" y="270">UNREGISTERED</text><text fill="#eeeeee" stroke="none" font-family="Arial" font-size="24px" font-style="normal" font-weight="normal" text-decoration="none" x="200" y="300">UNREGISTERED</text><text fill="#eeeeee" stroke="none" font-family="Arial" font-size="24px" font-style="normal" font-weight="normal" text-decoration="none" x="200" y="330">UNREGISTERED</text><text fill="#eeeeee" stroke="none" font-family="Arial" font-size="24px" font-style="normal" font-weight="normal" text-decoration="none" x="400" y="0">UNREGISTERED</text><text fill="#eeeeee" stroke="none" font-family="Arial" font-size="24px" font-style="normal" font-weight="normal" text-decoration="none" x="400" y="30">UNREGISTERED</text><text fill="#eeeeee" stroke="none" font-family="Arial" font-size="24px" font-style="normal" font-weight="normal" text-decoration="none" x="400" y="60">UNREGISTERED</text><text fill="#eeeeee" stroke="none" font-family="Arial" font-size="24px" font-style="normal" font-weight="normal" text-decoration="none" x="400" y="90">UNREGISTERED</text><text fill="#eeeeee" stroke="none" font-family="Arial" font-size="24px" font-style="normal" font-weight="normal" text-decoration="none" x="400" y="120">UNREGISTERED</text><text fill="#eeeeee" stroke="none" font-family="Arial" font-size="24px" font-style="normal" font-weight="normal" text-decoration="none" x="400" y="150">UNREGISTERED</text><text fill="#eeeeee" stroke="none" font-family="Arial" font-size="24px" font-style="normal" font-weight="normal" text-decoration="none" x="400" y="180">UNREGISTERED</text><text fill="#eeeeee" stroke="none" font-family="Arial" font-size="24px" font-style="normal" font-weight="normal" text-decoration="none" x="400" y="210">UNREGISTERED</text><text fill="#eeeeee" stroke="none" font-family="Arial" font-size="24px" font-style="normal" font-weight="normal" text-decoration="none" x="400" y="240">UNREGISTERED</text><text fill="#eeeeee" stroke="none" font-family="Arial" font-size="24px" font-style="normal" font-weight="normal" text-decoration="none" x="400" y="270">UNREGISTERED</text><text fill="#eeeeee" stroke="none" font-family="Arial" font-size="24px" font-style="normal" font-weight="normal" text-decoration="none" x="400" y="300">UNREGISTERED</text><text fill="#eeeeee" stroke="none" font-family="Arial" font-size="24px" font-style="normal" font-weight="normal" text-decoration="none" x="400" y="330">UNREGISTERED</text><g transform="translate(-14,-246) scale(1,1)"><rect fill="#C0C0C0" stroke="none" x="199" y="383" width="137.9970703125" height="85" opacity="0.2"/></g><g transform="translate(-14,-246) scale(1,1)"><rect fill="#ffffff" stroke="none" x="192" y="376" width="137.9970703125" height="85"/></g><g transform="translate(-14,-246) scale(1,1)"><path fill="none" stroke="#000000" d="M 192 376 L 329.9970703125 376 L 329.9970703125 461 L 192 461 L 192 376 Z Z" stroke-miterlimit="10"/></g><g transform="translate(-14,-246) scale(1,1)"><path fill="none" stroke="#000000" d="M 192 401 L 329.9970703125 401" stroke-miterlimit="10"/></g><g transform="translate(-14,-246) scale(1,1)"><path fill="none" stroke="#000000" d="M 192 439 L 329.9970703125 439" stroke-miterlimit="10"/></g><g transform="translate(-14,-246) scale(1,1)"><g><path fill="none" stroke="none"/><text fill="#000000" stroke="none" font-family="Arial" font-size="13px" font-style="normal" font-weight="bold" text-decoration="none" x="244.01220703125" y="395.5">Agent</text></g></g><g transform="translate(-14,-246) scale(1,1)"><g><path fill="none" stroke="none"/><text fill="#000000" stroke="none" font-family="Arial" font-size="13px" font-style="normal" font-weight="normal" text-decoration="none" x="197" y="418.5">+Force</text></g></g><g transform="translate(-14,-246) scale(1,1)"><g><path fill="none" stroke="none"/><text fill="#000000" stroke="none" font-family="Arial" font-size="13px" font-style="normal" font-weight="normal" text-decoration="none" x="197" y="433.5">+DureeDeVie</text></g></g><g transform="translate(-14,-246) scale(1,1)"><g><path fill="none" stroke="none"/><text fill="#000000" stroke="none" font-family="Arial" font-size="13px" font-style="normal" font-weight="normal" text-decoration="none" x="197" y="456.5">+live()</text></g></g><g transform="translate(-14,-246) scale(1,1)"><rect fill="#C0C0C0" stroke="none" x="87" y="503" width="117.74169921875" height="100" opacity="0.2"/></g><g transform="translate(-14,-246) scale(1,1)"><rect fill="#ffffff" stroke="none" x="80" y="496" width="117.74169921875" height="100"/></g><g transform="translate(-14,-246) scale(1,1)"><path fill="none" stroke="#000000" d="M 80 496 L 197.74169921875 496 L 197.74169921875 596 L 80 596 L 80 496 Z Z" stroke-miterlimit="10"/></g><g transform="translate(-14,-246) scale(1,1)"><path fill="none" stroke="#000000" d="M 80 521 L 197.74169921875 521" stroke-miterlimit="10"/></g><g transform="translate(-14,-246) scale(1,1)"><path fill="none" stroke="#000000" d="M 80 559 L 197.74169921875 559" stroke-miterlimit="10"/></g><g transform="translate(-14,-246) scale(1,1)"><g><path fill="none" stroke="none"/><text fill="#000000" stroke="none" font-family="Arial" font-size="13px" font-style="normal" font-weight="bold" text-decoration="none" x="111.77587890625" y="515.5">Survivant</text></g></g><g transform="translate(-14,-246) scale(1,1)"><g><path fill="none" stroke="none"/><text fill="#000000" stroke="none" font-family="Arial" font-size="13px" font-style="normal" font-weight="normal" text-decoration="none" x="85" y="538.5">+TauxDeRepro</text></g></g><g transform="translate(-14,-246) scale(1,1)"><g><path fill="none" stroke="none"/><text fill="#000000" stroke="none" font-family="Arial" font-size="13px" font-style="normal" font-weight="normal" text-decoration="none" x="85" y="553.5">+KillCount</text></g></g><g transform="translate(-14,-246) scale(1,1)"><g><path fill="none" stroke="none"/><text fill="#000000" stroke="none" font-family="Arial" font-size="13px" font-style="normal" font-weight="normal" text-decoration="none" x="85" y="576.5">+Attaquer(Zombie)</text></g></g><g transform="translate(-14,-246) scale(1,1)"><g><path fill="none" stroke="none"/><text fill="#000000" stroke="none" font-family="Arial" font-size="13px" font-style="normal" font-weight="normal" text-decoration="none" x="85" y="591.5">+live()</text></g></g><g transform="translate(-14,-246) scale(1,1)"><rect fill="#C0C0C0" stroke="none" x="311" y="503" width="128.58984375" height="100" opacity="0.2"/></g><g transform="translate(-14,-246) scale(1,1)"><rect fill="#ffffff" stroke="none" x="304" y="496" width="128.58984375" height="100"/></g><g transform="translate(-14,-246) scale(1,1)"><path fill="none" stroke="#000000" d="M 304 496 L 432.58984375 496 L 432.58984375 596 L 304 596 L 304 496 Z Z" stroke-miterlimit="10"/></g><g transform="translate(-14,-246) scale(1,1)"><path fill="none" stroke="#000000" d="M 304 521 L 432.58984375 521" stroke-miterlimit="10"/></g><g transform="translate(-14,-246) scale(1,1)"><path fill="none" stroke="#000000" d="M 304 544 L 432.58984375 544" stroke-miterlimit="10"/></g><g transform="translate(-14,-246) scale(1,1)"><g><path fill="none" stroke="none"/><text fill="#000000" stroke="none" font-family="Arial" font-size="13px" font-style="normal" font-weight="bold" text-decoration="none" x="346.620849609375" y="515.5">Zombie</text></g></g><g transform="translate(-14,-246) scale(1,1)"><g><path fill="none" stroke="none"/><text fill="#000000" stroke="none" font-family="Arial" font-size="13px" font-style="normal" font-weight="normal" text-decoration="none" x="309" y="538.5">+TempsSansManger</text></g></g><g transform="translate(-14,-246) scale(1,1)"><g><path fill="none" stroke="none"/><text fill="#000000" stroke="none" font-family="Arial" font-size="13px" font-style="normal" font-weight="normal" text-decoration="none" x="309" y="561.5">+Manger(Survivant)</text></g></g><g transform="translate(-14,-246) scale(1,1)"><g><path fill="none" stroke="none"/><text fill="#000000" stroke="none" font-family="Arial" font-size="13px" font-style="normal" font-weight="normal" text-decoration="none" x="309" y="576.5">+live()</text></g></g><g transform="translate(-14,-246) scale(1,1)"><g><path fill="none" stroke="none"/><text fill="#000000" stroke="none" font-family="Arial" font-size="13px" font-style="normal" font-weight="normal" text-decoration="none" x="309" y="591.5">+TraquerHumain()</text></g></g><g transform="translate(-14,-246) scale(1,1)"><path fill="none" stroke="#000000" d="M 187 495 L 218 462" stroke-miterlimit="10"/></g><g transform="translate(-14,-246) scale(1,1)"><path fill="#FFFFFF" stroke="none" d="M 210.21992960206444 482.5783989805613 L 218 462 L 197.9475339983938 471.0497849286283"/></g><g transform="translate(-14,-246) scale(1,1)"><path fill="none" stroke="#000000" d="M 210.21992960206444 482.5783989805613 L 218 462 L 197.9475339983938 471.0497849286283 L 210.21992960206444 482.5783989805613" stroke-miterlimit="10"/></g><g transform="translate(-14,-246) scale(1,1)"><path fill="none" stroke="#000000" d="M 325 495 L 297 462" stroke-miterlimit="10"/></g><g transform="translate(-14,-246) scale(1,1)"><path fill="#FFFFFF" stroke="none" d="M 316.5696343813966 472.05133872568524 L 297 462 L 303.73045140349194 482.9451909493619"/></g><g transform="translate(-14,-246) scale(1,1)"><path fill="none" stroke="#000000" d="M 316.5696343813966 472.05133872568524 L 297 462 L 303.73045140349194 482.9451909493619 L 316.5696343813966 472.05133872568524" stroke-miterlimit="10"/></g><g transform="translate(-14,-246) scale(1,1)"><rect fill="#C0C0C0" stroke="none" x="39" y="263" width="72.2353515625" height="57" opacity="0.2"/></g><g transform="translate(-14,-246) scale(1,1)"><rect fill="#ffffff" stroke="none" x="32" y="256" width="72.2353515625" height="57"/></g><g transform="translate(-14,-246) scale(1,1)"><path fill="none" stroke="#000000" d="M 32 256 L 104.2353515625 256 L 104.2353515625 313 L 32 313 L 32 256 Z Z" stroke-miterlimit="10"/></g><g transform="translate(-14,-246) scale(1,1)"><path fill="none" stroke="#000000" d="M 32 281 L 104.2353515625 281" stroke-miterlimit="10"/></g><g transform="translate(-14,-246) scale(1,1)"><path fill="none" stroke="#000000" d="M 32 304 L 104.2353515625 304" stroke-miterlimit="10"/></g><g transform="translate(-14,-246) scale(1,1)"><g><path fill="none" stroke="none"/><text fill="#000000" stroke="none" font-family="Arial" font-size="13px" font-style="normal" font-weight="bold" text-decoration="none" x="50.772705078125" y="275.5">Board</text></g></g><g transform="translate(-14,-246) scale(1,1)"><g><path fill="none" stroke="none"/><text fill="#000000" stroke="none" font-family="Arial" font-size="13px" font-style="normal" font-weight="normal" text-decoration="none" x="37" y="298.5">+int taille</text></g></g><g transform="translate(-14,-246) scale(1,1)"><rect fill="#C0C0C0" stroke="none" x="31" y="391" width="97.51171875" height="57" opacity="0.2"/></g><g transform="translate(-14,-246) scale(1,1)"><rect fill="#ffffff" stroke="none" x="24" y="384" width="97.51171875" height="57"/></g><g transform="translate(-14,-246) scale(1,1)"><path fill="none" stroke="#000000" d="M 24 384 L 121.51171875 384 L 121.51171875 441 L 24 441 L 24 384 Z Z" stroke-miterlimit="10"/></g><g transform="translate(-14,-246) scale(1,1)"><path fill="none" stroke="#000000" d="M 24 409 L 121.51171875 409" stroke-miterlimit="10"/></g><g transform="translate(-14,-246) scale(1,1)"><path fill="none" stroke="#000000" d="M 24 419 L 121.51171875 419" stroke-miterlimit="10"/></g><g transform="translate(-14,-246) scale(1,1)"><g><path fill="none" stroke="none"/><text fill="#000000" stroke="none" font-family="Arial" font-size="13px" font-style="normal" font-weight="bold" text-decoration="none" x="57.581787109375" y="403.5">Case</text></g></g><g transform="translate(-14,-246) scale(1,1)"><g><path fill="none" stroke="none"/><text fill="#000000" stroke="none" font-family="Arial" font-size="13px" font-style="normal" font-weight="normal" text-decoration="none" x="29" y="436.5">+OccupeePar()</text></g></g><g transform="translate(-14,-246) scale(1,1)"><path fill="none" stroke="#000000" d="M 71 383 L 69 314" stroke-miterlimit="10"/></g><g transform="translate(-14,-246) scale(1,1)"><path fill="#000000" stroke="none" d="M 73.50219715667275 324.0364446275784 L 69 314 L 65.0866960845581 324.28037219488607 L 69.63741345111319 335.99076406340487"/></g><g transform="translate(-14,-246) scale(1,1)"><path fill="none" stroke="#000000" d="M 73.50219715667275 324.0364446275784 L 69 314 L 65.0866960845581 324.28037219488607 L 69.63741345111319 335.99076406340487 L 73.50219715667275 324.0364446275784" stroke-miterlimit="10"/></g><g transform="translate(-14,-246) scale(1,1)"><g><path fill="none" stroke="none"/><text fill="#000000" stroke="none" font-family="Arial" font-size="13px" font-style="normal" font-weight="normal" text-decoration="none" x="75.5" y="348.5">+ListeCase</text></g></g><g transform="translate(-14,-246) scale(1,1)"><g><path fill="none" stroke="none"/><text fill="#000000" stroke="none" font-family="Arial" font-size="13px" font-style="normal" font-weight="normal" text-decoration="none" x="76.5" y="379.5">*</text></g></g><g transform="translate(-14,-246) scale(1,1)"><path fill="none" stroke="#000000" d="M 123 414 L 191 416" stroke-miterlimit="10"/></g><g transform="translate(-14,-246) scale(1,1)"><g><path fill="none" stroke="none"/><text fill="#000000" stroke="none" font-family="Arial" font-size="13px" font-style="normal" font-weight="normal" text-decoration="none" x="125.5" y="406.5">+Occupant</text></g></g></g></svg>