<svg version="1.1" xmlns="http://www.w3.org/2000/svg" xmlns:xlink="http://www.w3.org/1999/xlink" width="589.208984375" height="388"><defs/><g><text fill="#eeeeee" stroke="none" font-family="Arial" font-size="24px" font-style="normal" font-weight="normal" text-decoration="none" x="0" y="0">UNREGISTERED</text><text fill="#eeeeee" stroke="none" font-family="Arial" font-size="24px" font-style="normal" font-weight="normal" text-decoration="none" x="0" y="30">UNREGISTERED</text><text fill="#eeeeee" stroke="none" font-family="Arial" font-size="24px" font-style="normal" font-weight="normal" text-decoration="none" x="0" y="60">UNREGISTERED</text><text fill="#eeeeee" stroke="none" font-family="Arial" font-size="24px" font-style="normal" font-weight="normal" text-decoration="none" x="0" y="90">UNREGISTERED</text><text fill="#eeeeee" stroke="none" font-family="Arial" font-size="24px" font-style="normal" font-weight="normal" text-decoration="none" x="0" y="120">UNREGISTERED</text><text fill="#eeeeee" stroke="none" font-family="Arial" font-size="24px" font-style="normal" font-weight="normal" text-decoration="none" x="0" y="150">UNREGISTERED</text><text fill="#eeeeee" stroke="none" font-family="Arial" font-size="24px" font-style="normal" font-weight="normal" text-decoration="none" x="0" y="180">UNREGISTERED</text><text fill="#eeeeee" stroke="none" font-family="Arial" font-size="24px" font-style="normal" font-weight="normal" text-decoration="none" x="0" y="210">UNREGISTERED</text><text fill="#eeeeee" stroke="none" font-family="Arial" font-size="24px" font-style="normal" font-weight="normal" text-decoration="none" x="0" y="240">UNREGISTERED</text><text fill="#eeeeee" stroke="none" font-family="Arial" font-size="24px" font-style="normal" font-weight="normal" text-decoration="none" x="0" y="270">UNREGISTERED</text><text fill="#eeeeee" stroke="none" font-family="Arial" font-size="24px" font-style="normal" font-weight="normal" text-decoration="none" x="0" y="300">UNREGISTERED</text><text fill="#eeeeee" stroke="none" font-family="Arial" font-size="24px" font-style="normal" font-weight="normal" text-decoration="none" x="0" y="330">UNREGISTERED</text><text fill="#eeeeee" stroke="none" font-family="Arial" font-size="24px" font-style="normal" font-weight="normal" text-decoration="none" x="0" y="360">UNREGISTERED</text><text fill="#eeeeee" stroke="none" font-family="Arial" font-size="24px" font-style="normal" font-weight="normal" text-decoration="none" x="200" y="0">UNREGISTERED</text><text fill="#eeeeee" stroke="none" font-family="Arial" font-size="24px" font-style="normal" font-weight="normal" text-decoration="none" x="200" y="30">UNREGISTERED</text><text fill="#eeeeee" stroke="none" font-family="Arial" font-size="24px" font-style="normal" font-weight="normal" text-decoration="none" x="200" y="60">UNREGISTERED</text><text fill="#eeeeee" stroke="none" font-family="Arial" font-size="24px" font-style="normal" font-weight="normal" text-decoration="none" x="200" y="90">UNREGISTERED</text><text fill="#eeeeee" stroke="none" font-family="Arial" font-size="24px" font-style="normal" font-weight="normal" text-decoration="none" x="200" y="120">UNREGISTERED</text><text fill="#eeeeee" stroke="none" font-family="Arial" font-size="24px" font-style="normal" font-weight="normal" text-decoration="none" x="200" y="150">UNREGISTERED</text><text fill="#eeeeee" stroke="none" font-family="Arial" font-size="24px" font-style="normal" font-weight="normal" text-decoration="none" x="200" y="180">UNREGISTERED</text><text fill="#eeeeee" stroke="none" font-family="Arial" font-size="24px" font-style="normal" font-weight="normal" text-decoration="none" x="200" y="210">UNREGISTERED</text><text fill="#eeeeee" stroke="none" font-family="Arial" font-size="24px" font-style="normal" font-weight="normal" text-decoration="none" x="200" y="240">UNREGISTERED</text><text fill="#eeeeee" stroke="none" font-family="Arial" font-size="24px" font-style="normal" font-weight="normal" text-decoration="none" x="200" y="270">UNREGISTERED</text><text fill="#eeeeee" stroke="none" font-family="Arial" font-size="24px" font-style="normal" font-weight="normal" text-decoration="none" x="200" y="300">UNREGISTERED</text><text fill="#eeeeee" stroke="none" font-family="Arial" font-size="24px" font-style="normal" font-weight="normal" text-decoration="none" x="200" y="330">UNREGISTERED</text><text fill="#eeeeee" stroke="none" font-family="Arial" font-size="24px" font-style="normal" font-weight="normal" text-decoration="none" x="200" y="360">UNREGISTERED</text><text fill="#eeeeee" stroke="none" font-family="Arial" font-size="24px" font-style="normal" font-weight="normal" text-decoration="none" x="400" y="0">UNREGISTERED</text><text fill="#eeeeee" stroke="none" font-family="Arial" font-size="24px" font-style="normal" font-weight="normal" text-decoration="none" x="400" y="30">UNREGISTERED</text><text fill="#eeeeee" stroke="none" font-family="Arial" font-size="24px" font-style="normal" font-weight="normal" text-decoration="none" x="400" y="60">UNREGISTERED</text><text fill="#eeeeee" stroke="none" font-family="Arial" font-size="24px" font-style="normal" font-weight="normal" text-decoration="none" x="400" y="90">UNREGISTERED</text><text fill="#eeeeee" stroke="none" font-family="Arial" font-size="24px" font-style="normal" font-weight="normal" text-decoration="none" x="400" y="120">UNREGISTERED</text><text fill="#eeeeee" stroke="none" font-family="Arial" font-size="24px" font-style="normal" font-weight="normal" text-decoration="none" x="400" y="150">UNREGISTERED</text><text fill="#eeeeee" stroke="none" font-family="Arial" font-size="24px" font-style="normal" font-weight="normal" text-decoration="none" x="400" y="180">UNREGISTERED</text><text fill="#eeeeee" stroke="none" font-family="Arial" font-size="24px" font-style="normal" font-weight="normal" text-decoration="none" x="400" y="210">UNREGISTERED</text><text fill="#eeeeee" stroke="none" font-family="Arial" font-size="24px" font-style="normal" font-weight="normal" text-decoration="none" x="400" y="240">UNREGISTERED</text><text fill="#eeeeee" stroke="none" font-family="Arial" font-size="24px" font-style="normal" font-weight="normal" text-decoration="none" x="400" y="270">UNREGISTERED</text><text fill="#eeeeee" stroke="none" font-family="Arial" font-size="24px" font-style="normal" font-weight="normal" text-decoration="none" x="400" y="300">UNREGISTERED</text><text fill="#eeeeee" stroke="none" font-family="Arial" font-size="24px" font-style="normal" font-weight="normal" text-decoration="none" x="400" y="330">UNREGISTERED</text><text fill="#eeeeee" stroke="none" font-family="Arial" font-size="24px" font-style="normal" font-weight="normal" text-decoration="none" x="400" y="360">UNREGISTERED</text><g transform="translate(2,-214) scale(1,1)"><path fill="#C0C0C0" stroke="none" d="M 279 240.5 C 279 235.2532944 283.2532944 231 288.5 231 C 293.7467056 231 298 235.2532944 298 240.5 C 298 245.7467056 293.7467056 250 288.5 250 C 283.2532944 250 279 245.7467056 279 240.5 Z" opacity="0.2"/></g><g transform="translate(2,-214) scale(1,1)"><path fill="#000000" stroke="none" d="M 272 233.5 C 272 228.2532944 276.2532944 224 281.5 224 C 286.7467056 224 291 228.2532944 291 233.5 C 291 238.7467056 286.7467056 243 281.5 243 C 276.2532944 243 272 238.7467056 272 233.5 Z"/></g><g transform="translate(2,-214) scale(1,1)"><path fill="#C0C0C0" stroke="none" d="M 273 335 L 312 335 Q 322 335 322 345 L 322 364 Q 322 374 312 374 L 273 374 Q 263 374 263 364 L 263 345 Q 263 335 273 335 Z" opacity="0.2"/></g><g transform="translate(2,-214) scale(1,1)"><path fill="#ffffff" stroke="none" d="M 266 328 L 305 328 Q 315 328 315 338 L 315 357 Q 315 367 305 367 L 266 367 Q 256 367 256 357 L 256 338 Q 256 328 266 328 Z"/></g><g transform="translate(2,-214) scale(1,1)"><path fill="none" stroke="#000000" d="M 266 328 L 305 328 Q 315 328 315 338 L 315 357 Q 315 367 305 367 L 266 367 Q 256 367 256 357 L 256 338 Q 256 328 266 328 Z" stroke-miterlimit="10"/></g><g transform="translate(2,-214) scale(1,1)"><g><path fill="none" stroke="none"/><text fill="#000000" stroke="none" font-family="Arial" font-size="13px" font-style="normal" font-weight="bold" text-decoration="none" x="271.04638671875" y="347.5">Libre</text></g></g><g transform="translate(2,-214) scale(1,1)"><path fill="none" stroke="#000000" d="M 281 244 L 284 327" stroke-miterlimit="10"/></g><g transform="translate(2,-214) scale(1,1)"><path fill="none" stroke="#000000" d="M 279.42614338453484 316.9960090133404 L 284 327 L 287.8396848366257 316.69190510543353" stroke-miterlimit="10"/></g><g transform="translate(2,-214) scale(1,1)"><path fill="#C0C0C0" stroke="none" d="M 25 527 L 175.103515625 527 Q 185.103515625 527 185.103515625 537 L 185.103515625 589 Q 185.103515625 599 175.103515625 599 L 25 599 Q 15 599 15 589 L 15 537 Q 15 527 25 527 Z" opacity="0.2"/></g><g transform="translate(2,-214) scale(1,1)"><path fill="#ffffff" stroke="none" d="M 18 520 L 168.103515625 520 Q 178.103515625 520 178.103515625 530 L 178.103515625 582 Q 178.103515625 592 168.103515625 592 L 18 592 Q 8 592 8 582 L 8 530 Q 8 520 18 520 Z"/></g><g transform="translate(2,-214) scale(1,1)"><path fill="none" stroke="#000000" d="M 18 520 L 168.103515625 520 Q 178.103515625 520 178.103515625 530 L 178.103515625 582 Q 178.103515625 592 168.103515625 592 L 18 592 Q 8 592 8 582 L 8 530 Q 8 520 18 520 Z" stroke-miterlimit="10"/></g><g transform="translate(2,-214) scale(1,1)"><g><path fill="none" stroke="none"/><text fill="#000000" stroke="none" font-family="Arial" font-size="13px" font-style="normal" font-weight="bold" text-decoration="none" x="17.898681640625" y="539.5">Occupée par un Survivant</text></g></g><g transform="translate(2,-214) scale(1,1)"><path fill="#C0C0C0" stroke="none" d="M 425 527 L 573 527 Q 583 527 583 537 L 583 581 Q 583 591 573 591 L 425 591 Q 415 591 415 581 L 415 537 Q 415 527 425 527 Z" opacity="0.2"/></g><g transform="translate(2,-214) scale(1,1)"><path fill="#ffffff" stroke="none" d="M 418 520 L 566 520 Q 576 520 576 530 L 576 574 Q 576 584 566 584 L 418 584 Q 408 584 408 574 L 408 530 Q 408 520 418 520 Z"/></g><g transform="translate(2,-214) scale(1,1)"><path fill="none" stroke="#000000" d="M 418 520 L 566 520 Q 576 520 576 530 L 576 574 Q 576 584 566 584 L 418 584 Q 408 584 408 574 L 408 530 Q 408 520 418 520 Z" stroke-miterlimit="10"/></g><g transform="translate(2,-214) scale(1,1)"><g><path fill="none" stroke="none"/><text fill="#000000" stroke="none" font-family="Arial" font-size="13px" font-style="normal" font-weight="bold" text-decoration="none" x="425.8828125" y="539.5">Occupé par un Zombie</text></g></g><g transform="translate(2,-214) scale(1,1)"><path fill="none" stroke="#000000" d="M 179 555 L 407 553" stroke-miterlimit="10"/></g><g transform="translate(2,-214) scale(1,1)"><path fill="none" stroke="#000000" d="M 396.8746402860091 557.2984986521215 L 407 553 L 396.8007919384477 548.8797870301202" stroke-miterlimit="10"/></g><g transform="translate(2,-214) scale(1,1)"><g><path fill="none" stroke="none"/><text fill="#000000" stroke="none" font-family="Arial" font-size="13px" font-style="normal" font-weight="normal" text-decoration="none" x="222.5" y="571.5">Zombie mange Survivant</text></g></g><g transform="translate(2,-214) scale(1,1)"><path fill="none" stroke="#000000" d="M 127 519 L 266 368" stroke-miterlimit="10"/></g><g transform="translate(2,-214) scale(1,1)"><path fill="none" stroke="#000000" d="M 262.21424640788786 378.32802351564953 L 266 368 L 256.02005249894626 372.62608342728606" stroke-miterlimit="10"/></g><g transform="translate(2,-214) scale(1,1)"><g><path fill="none" stroke="none"/><text fill="#000000" stroke="none" font-family="Arial" font-size="13px" font-style="normal" font-weight="normal" text-decoration="none" x="86.5" y="387.5">Survivant quitte sa case</text></g></g><g transform="translate(2,-214) scale(1,1)"><path fill="none" stroke="#000000" d="M 266 368 L 127 519" stroke-miterlimit="10"/></g><g transform="translate(2,-214) scale(1,1)"><path fill="none" stroke="#000000" d="M 130.78575359211214 508.67197648435047 L 127 519 L 136.97994750105374 514.3739165727139" stroke-miterlimit="10"/></g><g transform="translate(2,-214) scale(1,1)"><g><path fill="none" stroke="none"/><text fill="#000000" stroke="none" font-family="Arial" font-size="13px" font-style="normal" font-weight="normal" text-decoration="none" x="150.5" y="515.5">Survivant arrive sur une case libre</text></g></g><g transform="translate(2,-214) scale(1,1)"><path fill="none" stroke="#000000" d="M 306 368 L 459 519" stroke-miterlimit="10"/></g><g transform="translate(2,-214) scale(1,1)"><path fill="none" stroke="#000000" d="M 448.80985147202523 514.8574315964835 L 459 519 L 454.72371508422657 508.8652386649153" stroke-miterlimit="10"/></g><g transform="translate(2,-214) scale(1,1)"><g><path fill="none" stroke="none"/><text fill="#000000" stroke="none" font-family="Arial" font-size="13px" font-style="normal" font-weight="normal" text-decoration="none" x="445.5" y="508.5">Zombie arrive sur case</text></g></g><g transform="translate(2,-214) scale(1,1)"><path fill="none" stroke="#000000" d="M 459 519 L 306 368" stroke-miterlimit="10"/></g><g transform="translate(2,-214) scale(1,1)"><path fill="none" stroke="#000000" d="M 316.19014852797477 372.14256840351646 L 306 368 L 310.27628491577343 378.1347613350847" stroke-miterlimit="10"/></g><g transform="translate(2,-214) scale(1,1)"><g><path fill="none" stroke="none"/><text fill="#000000" stroke="none" font-family="Arial" font-size="13px" font-style="normal" font-weight="normal" text-decoration="none" x="327.5" y="372.5">Zombie tué par Survivant</text></g></g></g></svg>